<svg xmlns="http://www.w3.org/2000/svg" viewBox="0 0 28 20" aria-hidden="true">
  <rect width="28" height="20" fill="#b22234"/>
  <path fill="#fff" d="M0 1.54h28V0H0zm0 3.08h28V3.08H0zm0 3.08h28V6.16H0zm0 3.08h28V9.24H0zm0 3.08h28v-1.54H0zm0 3.08h28v-1.54H0z"/>
  <rect width="12" height="10.8" fill="#3c3b6e"/>
  <g fill="#fff">
    <circle cx="2.2" cy="1.8" r=".55"/>
    <circle cx="4.6" cy="1.8" r=".55"/>
    <circle cx="7" cy="1.8" r=".55"/>
    <circle cx="9.4" cy="1.8" r=".55"/>
    <circle cx="3.4" cy="3.6" r=".55"/>
    <circle cx="5.8" cy="3.6" r=".55"/>
    <circle cx="8.2" cy="3.6" r=".55"/>
    <circle cx="2.2" cy="5.4" r=".55"/>
    <circle cx="4.6" cy="5.4" r=".55"/>
    <circle cx="7" cy="5.4" r=".55"/>
    <circle cx="9.4" cy="5.4" r=".55"/>
    <circle cx="3.4" cy="7.2" r=".55"/>
    <circle cx="5.8" cy="7.2" r=".55"/>
    <circle cx="8.2" cy="7.2" r=".55"/>
    <circle cx="2.2" cy="9" r=".55"/>
    <circle cx="4.6" cy="9" r=".55"/>
    <circle cx="7" cy="9" r=".55"/>
    <circle cx="9.4" cy="9" r=".55"/>
  </g>
</svg>
